<?xml version="1.0" encoding="UTF-8"?>
<svg width="430px" height="87px" viewBox="0 0 430 87" version="1.1" xmlns="http://www.w3.org/2000/svg" xmlns:xlink="http://www.w3.org/1999/xlink">
    <title>Logo / Revised / Color</title>
    <defs>
        <linearGradient x1="0%" y1="49.1167281%" x2="100%" y2="50.8832719%" id="linearGradient-1">
            <stop stop-color="#2C56B6" offset="0%"></stop>
            <stop stop-color="#A733B7" offset="100%"></stop>
        </linearGradient>
        <linearGradient x1="8.02877563%" y1="0%" x2="91.9712244%" y2="100%" id="linearGradient-2">
            <stop stop-color="#3B77FD" offset="0%"></stop>
            <stop stop-color="#DA53EE" offset="100%"></stop>
        </linearGradient>
    </defs>
    <g id="Logo-/-Revised-/-Color" stroke="none" stroke-width="1" fill="none" fill-rule="evenodd">
        <path d="M115.027668,18 C118.495389,18 121.538867,18.5986842 124.158103,19.7960526 C126.777339,20.9934211 128.963109,22.5868421 130.715415,24.5763158 C132.467721,26.5657895 133.786561,28.8039474 134.671937,31.2907895 C135.557312,33.7776316 136,36.3289474 136,38.9447368 C136,41.5605263 135.557312,44.1210526 134.671937,46.6263158 C133.786561,49.1315789 132.467721,51.3881579 130.715415,53.3960526 C128.963109,55.4039474 126.777339,57.0065789 124.158103,58.2039474 C121.538867,59.4013158 118.495389,60 115.027668,60 C111.523057,60 108.461133,59.4013158 105.841897,58.2039474 C103.222661,57.0065789 101.036891,55.4039474 99.284585,53.3960526 C97.5322793,51.3881579 96.2134387,49.1315789 95.3280632,46.6263158 C94.4426877,44.1210526 94,41.5605263 94,38.9447368 C94,36.3289474 94.4426877,33.7776316 95.3280632,31.2907895 C96.2134387,28.8039474 97.5322793,26.5657895 99.284585,24.5763158 C101.036891,22.5868421 103.222661,20.9934211 105.841897,19.7960526 C108.461133,18.5986842 111.523057,18 115.027668,18 Z M264.525813,19 C267.076482,19 269.239006,19.4894144 271.013384,20.4682432 C272.787763,21.4470721 274.146272,22.7213964 275.08891,24.2912162 C276.031549,25.861036 276.502868,27.5509009 276.502868,29.3608108 C276.502868,31.1707207 276.170172,32.7128378 275.50478,33.9871622 C274.839388,35.2614865 274.035373,36.2864865 273.092734,37.0621622 C272.150096,37.8378378 271.253665,38.354955 270.403442,38.6135135 L270.403442,38.9459459 C271.586361,39.2783784 272.760038,39.8416667 273.924474,40.6358108 C275.08891,41.429955 276.059273,42.4918919 276.835564,43.8216216 C277.611855,45.1513514 278,46.7765766 278,48.6972973 C278,50.5810811 277.547164,52.3817568 276.641491,54.0993243 C275.735819,55.8168919 274.31262,57.2297297 272.371893,58.3378378 C270.431166,59.4459459 267.889739,60 264.74761,60 L254,60 L254,56.232 L264.636711,56.2324324 C266.780752,56.2324324 268.518164,55.8538288 269.848948,55.0966216 C271.179732,54.3394144 272.159337,53.3698198 272.787763,52.1878378 C273.416189,51.0058559 273.730402,49.7869369 273.730402,48.5310811 C273.730402,47.2382883 273.416189,46.0101351 272.787763,44.8466216 C272.159337,43.6831081 271.179732,42.7227477 269.848948,41.9655405 C268.518164,41.2083333 266.780752,40.8297297 264.636711,40.8297297 L254,40.829 L254,37.339 L264.359465,37.3391892 C266.207776,37.3391892 267.723391,36.9790541 268.90631,36.2587838 C270.089229,35.5385135 270.957935,34.6243243 271.512428,33.5162162 C272.066922,32.4081081 272.344168,31.2445946 272.344168,30.0256757 C272.344168,28.8067568 272.066922,27.6432432 271.512428,26.5351351 C270.957935,25.427027 270.089229,24.5220721 268.90631,23.8202703 C267.723391,23.1184685 266.207776,22.7675676 264.359465,22.7675676 L254,22.767 L254,19 L264.525813,19 Z M284,19 L284,60 L280,60 L280,19 L284,19 Z M306.5,18 C309.694915,18 312.504237,18.5894737 314.927966,19.7684211 C317.351695,20.9473684 319.38065,22.5407895 321.014831,24.5486842 C322.649011,26.5565789 323.888418,28.8131579 324.733051,31.3184211 C325.577684,33.8236842 326,36.3657895 326,38.9447368 C326,41.5605263 325.577684,44.1210526 324.733051,46.6263158 C323.888418,49.1315789 322.649011,51.3881579 321.014831,53.3960526 C319.38065,55.4039474 317.351695,57.0065789 314.927966,58.2039474 C312.504237,59.4013158 309.694915,60 306.5,60 C303.305085,60 300.486582,59.4013158 298.044492,58.2039474 C295.602401,57.0065789 293.564266,55.4039474 291.930085,53.3960526 C290.295904,51.3881579 289.065678,49.1315789 288.239407,46.6263158 C287.413136,44.1210526 287,41.5605263 287,38.9447368 C287,36.3657895 287.413136,33.8236842 288.239407,31.3184211 C289.065678,28.8131579 290.295904,26.5565789 291.930085,24.5486842 C293.564266,22.5407895 295.602401,20.9473684 298.044492,19.7684211 C300.486582,18.5894737 303.305085,18 306.5,18 Z M343.360308,18 C345.893385,18 347.979448,18.3868421 349.618497,19.1605263 C351.257547,19.9342105 352.561336,20.8828947 353.529865,22.0065789 C354.498394,23.1302632 355.215478,24.2631579 355.681118,25.4052632 C356.146757,26.5473684 356.444766,27.5052632 356.575145,28.2789474 C356.705523,29.0526316 356.770713,29.4394737 356.770713,29.4394737 L352.524085,29.4394737 C352.524085,29.4394737 352.486834,29.1815789 352.412331,28.6657895 C352.337829,28.15 352.142261,27.5144737 351.825626,26.7592105 C351.508992,26.0039474 351.015414,25.2486842 350.344894,24.4934211 C349.674374,23.7381579 348.761721,23.1026316 347.606936,22.5868421 C346.452152,22.0710526 344.999358,21.8131579 343.248555,21.8131579 C340.342967,21.8131579 338.145151,22.5223684 336.655106,23.9407895 C335.165061,25.3592105 334.420039,27.0078947 334.420039,28.8868421 C334.420039,30.6184211 335.025369,32 336.236031,33.0315789 C337.446692,34.0631579 339.132306,34.8368421 341.292871,35.3526316 L346.936416,36.7342105 C349.05973,37.25 350.950225,37.9868421 352.6079,38.9447368 C354.265575,39.9026316 355.578677,41.1368421 356.547206,42.6473684 C357.515735,44.1578947 358,45.9815789 358,48.1184211 C358,50.2552632 357.450546,52.2263158 356.351638,54.0315789 C355.25273,55.8368421 353.669557,57.2828947 351.602119,58.3697368 C349.534682,59.4565789 347.029544,60 344.086705,60 C341.665382,60 339.607258,59.6960526 337.912331,59.0881579 C336.217405,58.4802632 334.820488,57.6973684 333.72158,56.7394737 C332.622672,55.7815789 331.74727,54.7684211 331.095376,53.7 C330.443481,52.6315789 329.968529,51.6184211 329.67052,50.6605263 C329.372511,49.7026316 329.186256,48.9197368 329.111753,48.3118421 C329.037251,47.7039474 329,47.4 329,47.4 L333.358382,47.4 C333.358382,47.4 333.404945,47.6947368 333.498073,48.2842105 C333.591201,48.8736842 333.814708,49.6013158 334.168593,50.4671053 C334.522479,51.3328947 335.090559,52.1986842 335.872832,53.0644737 C336.655106,53.9302632 337.716763,54.6486842 339.057803,55.2197368 C340.398844,55.7907895 342.112396,56.0763158 344.198459,56.0763158 C347.029544,56.0763158 349.320488,55.3578947 351.071291,53.9210526 C352.822094,52.4842105 353.697495,50.6236842 353.697495,48.3394737 C353.697495,46.2026316 352.999037,44.5815789 351.602119,43.4763158 C350.205202,42.3710526 348.370584,41.5421053 346.098266,40.9894737 L340.789981,39.7184211 C338.77842,39.2026316 336.971741,38.5118421 335.369942,37.6460526 C333.768144,36.7802632 332.501606,35.6565789 331.570328,34.275 C330.639049,32.8934211 330.17341,31.1894737 330.17341,29.1631579 C330.17341,26.8421053 330.750803,24.8526316 331.905588,23.1947368 C333.060373,21.5368421 334.62492,20.2565789 336.599229,19.3539474 C338.573539,18.4513158 340.827232,18 343.360308,18 Z M366,19 L366,60 L362,60 L362,19 L366,19 Z M380.705539,19 L391,44.5972973 L404.294461,19 L410,19 L410,60 L405.790087,60 L405.790087,25.0945946 L392.994169,49.472973 L389.005831,49.472973 L378,23.686 L378,60 L374,60 L374,19 L380.705539,19 Z M156.633166,19 C160.060302,19 162.916248,19.6648649 165.201005,20.9945946 C167.485762,22.3243243 169.190117,24.0418919 170.31407,26.1472973 C171.438023,28.2527027 172,30.4504505 172,32.7405405 C172,35.0675676 171.438023,37.2837838 170.31407,39.3891892 C169.190117,41.4945946 167.485762,43.2213964 165.201005,44.5695946 C162.916248,45.9177928 160.060302,46.5918919 156.633166,46.5918919 L148.562814,46.5918919 L148.562814,60 L139,60 L139,19 L156.633166,19 Z M202.725379,19 L202.725379,27.3108108 L183.501894,27.3108108 L183.501894,35.2337838 L200.253788,35.2337838 L200.253788,43.1567568 L183.501894,43.1567568 L183.501894,51.6891892 L203,51.6891892 L203,60 L174,60 L174,19 L202.725379,19 Z M214.889776,19 L231.439297,43.4337838 L231.439297,19 L241,19 L241,60 L232.054313,60 L215.616613,36.5081081 L215.616613,60 L206,60 L206,19 L214.889776,19 Z M306.5,21.9789474 C303.488701,21.9789474 300.844633,22.725 298.567797,24.2171053 C296.29096,25.7092105 294.509887,27.7355263 293.224576,30.2960526 C291.939266,32.8565789 291.29661,35.7394737 291.29661,38.9447368 C291.29661,42.1868421 291.939266,45.0973684 293.224576,47.6763158 C294.509887,50.2552632 296.29096,52.2907895 298.567797,53.7828947 C300.844633,55.275 303.488701,56.0210526 306.5,56.0210526 C309.474576,56.0210526 312.100282,55.275 314.377119,53.7828947 C316.653955,52.2907895 318.435028,50.2552632 319.720339,47.6763158 C321.00565,45.0973684 321.648305,42.1868421 321.648305,38.9447368 C321.648305,35.7394737 321.00565,32.8565789 319.720339,30.2960526 C318.435028,27.7355263 316.653955,25.7092105 314.377119,24.2171053 C312.100282,22.725 309.474576,21.9789474 306.5,21.9789474 Z M115.027668,26.5105263 C112.592885,26.5105263 110.554677,27.1184211 108.913043,28.3342105 C107.27141,29.55 106.044796,31.1065789 105.233202,33.0039474 C104.421607,34.9013158 104.01581,36.8815789 104.01581,38.9447368 C104.01581,41.0447368 104.421607,43.0434211 105.233202,44.9407895 C106.044796,46.8381579 107.27141,48.3947368 108.913043,49.6105263 C110.554677,50.8263158 112.592885,51.4342105 115.027668,51.4342105 C117.42556,51.4342105 119.445323,50.8263158 121.086957,49.6105263 C122.72859,48.3947368 123.964427,46.8381579 124.794466,44.9407895 C125.624506,43.0434211 126.039526,41.0447368 126.039526,38.9447368 C126.039526,36.8815789 125.624506,34.9013158 124.794466,33.0039474 C123.964427,31.1065789 122.72859,29.55 121.086957,28.3342105 C119.445323,27.1184211 117.42556,26.5105263 115.027668,26.5105263 Z M156.577889,27.3662162 L148.562814,27.3662162 L148.562814,38.2810811 L156.577889,38.2810811 C158.530988,38.2810811 159.9866,37.7085586 160.944724,36.5635135 C161.902848,35.4184685 162.38191,34.1626126 162.38191,32.7959459 C162.38191,31.4292793 161.902848,30.1826577 160.944724,29.0560811 C159.9866,27.9295045 158.530988,27.3662162 156.577889,27.3662162 Z" id="Combined-Shape" fill="url(#linearGradient-1)"></path>
        <g id="Emblem-/-Mono" transform="translate(-0.220000, 0.000000)" fill="url(#linearGradient-2)" fill-rule="nonzero">
            <path d="M32.1836466,0 L44.7772473,6.99460727 L44.777,19.004 L54.403,25.133 L64.3672931,19.6 L76.9608939,26.5946074 L76.9608939,40.6053926 L64.3672931,47.6 L54.349,42.036 L44.777,47.748 L44.7772473,71.0555865 L22.3882957,84 L0,71.0332403 L0,45.1444133 L22.3882957,32.2 L43.297,44.288 L51.773,39.231 L51.773,27.872 L42.753,22.129 L32.1836466,28 L19.5900457,21.0053926 L19.5900457,6.99460727 L32.1836466,0 Z M22.3882957,36.32749 L3.58194363,47.2081583 L3.58194363,68.9688381 L22.3882957,79.8495064 L41.1946478,68.9688381 L41.1946478,47.2081583 L22.3882957,36.32749 Z M64.3672931,23.6058006 L55.3722403,28.6082929 L55.3722403,38.6132778 L64.3672931,43.6157702 L73.3623458,38.6132778 L73.3623458,28.6082929 L64.3672931,23.6058006 Z M32.1836466,3.98486422 L23.1885938,8.98672219 L23.1885938,18.9917071 L32.1836466,23.9941994 L41.1786993,18.9917071 L41.1786993,8.98672219 L32.1836466,3.98486422 Z" id="Emblem-Colour"></path>
        </g>
    </g>
</svg>