<svg id="Layer_1" data-name="Layer 1" xmlns="http://www.w3.org/2000/svg" viewBox="0 0 2232.368 681.757"><defs><style>.cls-1{fill:#211915;}</style></defs><title>LOGO COLOR</title><path class="cls-1" d="M504.863,205.905,434.855,46.16a23.713,23.713,0,0,0-21.528-14.933h-.038c-9.337,0-17.839,5.857-21.647,14.933l-65.759,154.2c-5.261,12.415-.179,27.318,11.394,33.22a22.261,22.261,0,0,0,17.9,1.133,24.37,24.37,0,0,0,13.964-13.577l44.284-105.292,46.364,106.41c.09.641.209,1.267.358,2.042a15.533,15.533,0,0,1-.932,3.666c-4.232,10.209-13.182,22.5-45.12,27.139-17.742,2.579-32.631,2.966-45.776,3.309-10.581.268-20.566.536-30.231,1.893-13.681,1.922-24.784,6.378-33.943,13.606-8.174,6.469-16.773,20.865-27.079,45.322L256.9,363.852c-5.269,12.594-.276,27.125,11.386,33.086a22.282,22.282,0,0,0,17.884,1.118,24.575,24.575,0,0,0,14.039-13.741l22.663-54.831c4.2-9.97,7.46-13.323,9.554-14.963,2.265-1.8,5.164-3.189,11.922-4.143,5.4-.76,12.8-.954,21.372-1.162,14.486-.373,32.512-.82,54.77-4.039,29.978-4.367,50.485-9.792,64.45-23.249l42.8,102.818a24.416,24.416,0,0,0,13.853,13.592,21.491,21.491,0,0,0,7.489,1.371,23.2,23.2,0,0,0,8.264-1.58l2.22-.819c11.543-5.857,16.67-20.731,11.416-33.235Z"/><path class="cls-1" d="M755.019,81.163h.03A134.63,134.63,0,0,1,870.9,147.581a26.221,26.221,0,0,0,35.1,9.567,25.2,25.2,0,0,0,12.322-15.355,24.587,24.587,0,0,0-2.478-19.179c-33.132-56.674-94.745-91.883-160.789-91.9-102.481,0-185.855,82.7-185.855,184.352,0,101.714,83.374,184.454,185.855,184.454,66.066-.015,127.679-35.223,160.8-91.9a24.621,24.621,0,0,0,2.47-19.151,25.013,25.013,0,0,0-10.162-14.066l-1.91-1.172a1.95,1.95,0,0,0-.206-.117l-1.7-.938h-.177A26.259,26.259,0,0,0,870.9,282.628a134.69,134.69,0,0,1-115.85,66.462c-73.95,0-134.117-60.117-134.117-134.008A133.72,133.72,0,0,1,755.019,81.163Z"/><path class="cls-1" d="M1255.8,196.471l-97.908.015c-53.429,0-96.895,43.757-96.895,97.528v80.843a24.539,24.539,0,1,0,49.077,0V294.014c0-27.035,21.006-48.212,47.818-48.212H1255.8a24.666,24.666,0,0,0,0-49.331Z"/><path class="cls-1" d="M1294.073,31.684l-136.179-.015C1104.465,31.669,1061,75.784,1061,130v30.075c.022,13.816,11.036,25.068,24.568,25.068,13.5-.015,24.5-11.267,24.509-25.083V130c0-27.005,21.006-48.168,47.818-48.168h136.194c13.5-.015,24.5-11.267,24.509-25.082S1307.591,31.7,1294.073,31.684Z"/><path class="cls-1" d="M985.279,30.716h-.03c-13.5.015-24.493,11.267-24.516,25.083V374.455c.023,13.8,11.021,25.052,24.546,25.067,13.5-.015,24.486-11.267,24.509-25.082V55.784C1009.765,41.983,998.774,30.731,985.279,30.716Z"/><path class="cls-1" d="M2136,85.228a185.493,185.493,0,0,0-131.4-54.07h-.03c-102.595,0-186.069,82.686-186.069,184.312a25.489,25.489,0,0,0,25.522,25.322h.075a25.506,25.506,0,0,0,25.581-25.322,132.268,132.268,0,0,1,39.427-94.594,134.61,134.61,0,0,1,95.434-39.09h.052a134.621,134.621,0,0,1,95.434,39.09,133.155,133.155,0,0,1,0,189.159,134.693,134.693,0,0,1-95.441,39.046h-.067a134.673,134.673,0,0,1-113.959-62.108,25.712,25.712,0,0,0-35.336-7.859,25.195,25.195,0,0,0-7.824,35.013c34.345,53.583,93.094,85.582,157.164,85.582,102.55,0,185.979-82.642,185.979-184.239A182.241,182.241,0,0,0,2136,85.228Z"/><path class="cls-1" d="M288.272,123.236c-7.243-38.033-33.182-70.568-67.691-84.92a89.832,89.832,0,0,0-34.442-7.2l-121.15.015C52.62,31.163,42.791,42.042,42.6,55.9c0,0-1.1,76.664-1.1,119.556-.045,13.86,9.992,25.171,22.407,25.246,12.362,0,22.415-11.312,22.415-25.217,0-31.654.551-73.026.842-94.115h86.775c13.577,0,26.759.611,38.749,8.048,17.764,11.029,29.933,33.92,30.276,56.961a69.239,69.239,0,0,1-4.218,24.814c-5.753,15.574-16.96,28.794-29.963,35.366-15.731,7.929-34.882,8.853-47.915,8.853-45.515,0-75.791,9.284-95.27,29.21C49.5,261.093,41.613,285,41.509,317.711v56.548c0,13.846,10.045,25.127,22.4,25.157,12.362,0,22.422-11.282,22.422-25.157V317.74c.089-19.389,2.586-28.778,9.531-35.887,5.872-6.006,22.124-16.081,65.016-16.081,38.8,0,70.9-10.328,90.4-29.091C281.827,207.321,296,163.848,288.272,123.236Z"/><path class="cls-1" d="M1384.068,30.716h-.03c-13.5.015-24.494,11.267-24.516,25.083V374.455c.022,13.8,11.021,25.052,24.546,25.067,13.5-.015,24.486-11.267,24.508-25.082V55.784C1408.554,41.983,1397.563,30.731,1384.068,30.716Z"/><path class="cls-1" d="M1635.326,81.163h.03a134.63,134.63,0,0,1,115.85,66.418,26.221,26.221,0,0,0,35.1,9.567,25.2,25.2,0,0,0,12.322-15.355,24.582,24.582,0,0,0-2.478-19.179c-33.132-56.674-94.745-91.883-160.789-91.9-102.481,0-185.855,82.7-185.855,184.352,0,101.714,83.374,184.454,185.855,184.454,66.066-.015,127.679-35.223,160.8-91.9a24.621,24.621,0,0,0,2.47-19.151,25.013,25.013,0,0,0-10.162-14.066l-1.91-1.172a1.95,1.95,0,0,0-.206-.117l-1.7-.938h-.177a26.26,26.26,0,0,0-33.259,10.447,134.69,134.69,0,0,1-115.85,66.462c-73.95,0-134.117-60.117-134.117-134.008A133.72,133.72,0,0,1,1635.326,81.163Z"/><path class="cls-1" d="M1379.74,461.991a2.99,2.99,0,0,1,2.541-1.178h.128c2.2,0,3.314,1.4,3.314,4.177v177.8c0,2.874-1.109,4.308-3.314,4.308h-.128a2.968,2.968,0,0,1-2.605-1.172,5.322,5.322,0,0,1-.83-3.136V464.99A4.8,4.8,0,0,1,1379.74,461.991Z"/><path class="cls-1" d="M1426.474,506.748A92.929,92.929,0,0,1,1460.3,473.2a90.828,90.828,0,0,1,46.46-12.385,89.369,89.369,0,0,1,46.271,12.385,92.535,92.535,0,0,1,0,159.592,90.044,90.044,0,0,1-46.271,12.258,92.617,92.617,0,0,1-80.344-45.618,92.274,92.274,0,0,1,.063-92.682Zm6.323,89.082a83.454,83.454,0,0,0,30.974,30.646,84.859,84.859,0,0,0,42.984,11.245,83.5,83.5,0,0,0,42.732-11.245,82.233,82.233,0,0,0,30.466-30.583,84.074,84.074,0,0,0,11.13-42.709,85.024,85.024,0,0,0-11.13-42.963,81.974,81.974,0,0,0-30.466-30.7,83.507,83.507,0,0,0-42.732-11.244,84.912,84.912,0,0,0-73.958,42.075,85.973,85.973,0,0,0,0,85.482Z"/><path class="cls-1" d="M1631.107,460.813h.128c2.205,0,3.308,1.392,3.308,4.158V637.38h82.078q4.326,0,4.329,3.377v.131a3.366,3.366,0,0,1-1.213,2.79,4.8,4.8,0,0,1-3.116.977h-85.514q-3.438,0-3.435-3.637V464.971C1627.672,462.205,1628.815,460.813,1631.107,460.813Z"/><path class="cls-1" d="M1815.949,460.813h.638a3.037,3.037,0,0,1,1.654.589,4.619,4.619,0,0,1,1.532,2.156l72.932,176.66a4.414,4.414,0,0,1,.383,1.7,3.262,3.262,0,0,1-1.143,2.483,3.558,3.558,0,0,1-2.42,1.042h-.383c-1.19,0-2.118-.828-2.8-2.483L1865.721,592.4h-99.028l-20.624,50.424q-1.018,2.618-2.676,2.614h-.377a3.815,3.815,0,0,1-2.547-.851,2.967,2.967,0,0,1-1.022-2.412,5.022,5.022,0,0,1,.383-1.96l73.066-176.66A3.885,3.885,0,0,1,1815.949,460.813ZM1862.8,585.221,1816.332,472.7l-46.715,112.522Z"/><path class="cls-1" d="M1917.843,460.813h73.065a46.593,46.593,0,0,1,40.412,22.9,45.231,45.231,0,0,1,6.3,23.546,43.543,43.543,0,0,1-6.871,24.195,49.132,49.132,0,0,1-18.587,16.821,43.009,43.009,0,0,1,17.438,10.346,55.667,55.667,0,0,1,12.476,17.73,50.755,50.755,0,0,1,4.585,20.957,47.1,47.1,0,0,1-6.111,23.351,48.761,48.761,0,0,1-16.55,17.6,44.922,44.922,0,0,1-22.655,7.178h-83.5q-3.44,0-3.436-3.621V464.31Q1914.407,460.815,1917.843,460.813Zm3.435,85.525h69.63a40.342,40.342,0,0,0,19.986-5.114,38.99,38.99,0,0,0,14.571-13.973,37.321,37.321,0,0,0,5.414-19.86,38.111,38.111,0,0,0-5.414-19.924,39.974,39.974,0,0,0-34.557-19.535h-69.63Zm0,93.325H2001.6c8.484,0,15.593-3.624,21.321-8.2A42.4,42.4,0,0,0,2035.65,615.1q4.134-9.51,4.137-17.529a41.815,41.815,0,0,0-6.366-22.774,47.737,47.737,0,0,0-15.656-15.719q-9.288-5.626-17.694-5.627h-78.793Z"/><path class="cls-1" d="M2060.275,617.4A3.229,3.229,0,0,1,2061.3,615l.249-.253a3.858,3.858,0,0,1,1.909-.5q1.785,0,3.819,2.392c6.621,8.141,11.458,10.845,20.748,15s20.688,6.224,34.18,6.224a96.835,96.835,0,0,0,30.739-4.526Q2166.5,628.8,2174.58,618.8t8.084-25.608q0-13.458-9.355-21.455a57.825,57.825,0,0,0-21.065-11.513q-11.715-3.519-29.786-7.045-21-3.777-34.436-9.562t-20.171-14.537q-6.755-8.742-6.749-21.328,0-14.844,7.829-25.419t22.277-16.039q14.442-5.472,34.174-5.478,17.445,0,30.234,4.658t24.5,15.855a3.75,3.75,0,0,1,1.149,2.771,3.632,3.632,0,0,1-.766,2.26l-.255.253a4.01,4.01,0,0,1-2.165.631,3.782,3.782,0,0,1-2.031-.631,17.137,17.137,0,0,1-2.419-1.888,94.95,94.95,0,0,0-13.875-9.941,49.763,49.763,0,0,0-14.322-5.22,99.787,99.787,0,0,0-20.05-1.7,95.869,95.869,0,0,0-27.814,3.9,46.794,46.794,0,0,0-21.192,12.769q-8.27,8.871-8.275,23.216,0,16.486,15.215,25.355t40.8,13.653a314.833,314.833,0,0,1,33.223,8.117,57.847,57.847,0,0,1,22.6,13.338q9.731,9.251,9.737,24.977,0,17.115-8.786,28.694t-24.059,17.238q-15.276,5.663-34.621,5.662-20.369,0-35.706-6.356c-10.225-4.234-16.338-7.821-24.567-17.636A5.469,5.469,0,0,1,2060.275,617.4Z"/><path class="cls-1" d="M1224.766,460.813h73.065a46.6,46.6,0,0,1,40.413,22.9,45.239,45.239,0,0,1,6.3,23.546,43.534,43.534,0,0,1-6.871,24.195,49.124,49.124,0,0,1-18.587,16.821,43,43,0,0,1,17.438,10.346A55.667,55.667,0,0,1,1349,576.354a50.755,50.755,0,0,1,4.585,20.957,47.1,47.1,0,0,1-6.111,23.351,48.752,48.752,0,0,1-16.55,17.6,44.919,44.919,0,0,1-22.655,7.178h-83.5q-3.438,0-3.436-3.621V464.31Q1221.33,460.815,1224.766,460.813Zm3.435,85.525h69.63a40.339,40.339,0,0,0,19.986-5.114,38.983,38.983,0,0,0,14.571-13.973,37.322,37.322,0,0,0,5.415-19.86,38.112,38.112,0,0,0-5.415-19.924,39.974,39.974,0,0,0-34.557-19.535H1228.2Zm0,93.325h80.325c8.484,0,15.593-3.624,21.321-8.2a42.4,42.4,0,0,0,12.726-16.368q4.134-9.51,4.137-17.529a41.815,41.815,0,0,0-6.366-22.774,47.737,47.737,0,0,0-15.656-15.719q-9.288-5.626-17.694-5.627H1228.2Z"/><path class="cls-1" d="M1091.737,607.552a55.252,55.252,0,1,1,55.257-55.246A55.315,55.315,0,0,1,1091.737,607.552Zm0-105.844a50.593,50.593,0,1,0,50.6,50.6A50.659,50.659,0,0,0,1091.737,501.708Z"/></svg>